<svg width="101" height="156" viewBox="0 0 101 156" fill="none" xmlns="http://www.w3.org/2000/svg">
<path d="M97.666 166.4L100.219 164.8V101.241L97.666 100.121V166.4Z" fill="#505B75"/>
<path d="M29.9985 100.322V166.401H97.666V100.122L29.9985 100.322Z" fill="#F2F2F2"/>
<path d="M85.7217 119.121L79.5851 113.721L64.5524 129.921L47.8312 110.801L41.2827 115.681L60.5574 134.201L41.571 154.64L43.0125 155.72L64.1406 137.601L82.3445 155.12L84.6921 152.96L68.2179 134.121L85.7217 119.121Z" fill="#FF1B28"/>
<path d="M96.9651 102.161C96.9651 102.641 96.5945 103.001 96.1002 103.001C95.606 103.001 95.2354 102.601 95.2354 102.161C95.2354 101.681 95.606 101.321 96.1002 101.321C96.5945 101.321 96.9651 101.721 96.9651 102.161Z" fill="#C6C6C6"/>
<path d="M33.1687 102.161C33.1687 102.641 32.7981 103.001 32.3039 103.001C31.8096 103.001 31.439 102.601 31.439 102.161C31.439 101.681 31.8508 101.321 32.3039 101.321C32.7569 101.321 33.1687 101.721 33.1687 102.161Z" fill="#C6C6C6"/>
<path d="M53.5569 86.8409C53.5157 86.8009 48.8618 83.8809 41.4072 91.4409L46.1435 94.8408C46.1847 94.8008 48.3676 89.5209 53.5569 86.8409Z" fill="#11B1C8"/>
<path d="M44.373 93.5609L46.144 94.8409C46.144 94.8409 48.2856 89.6809 53.3514 86.9609C49.8507 88.3209 46.9265 90.7209 44.373 93.5609Z" fill="#149DB1"/>
<path d="M75.8797 89.8808C68.3016 88.2408 53.5572 86.8008 53.5572 86.8008C48.3679 89.4808 46.1851 94.8007 46.1851 94.8007V100.281H78.1037V96.6807L78.3508 97.0807C77.1564 95.2407 75.8797 89.8808 75.8797 89.8808Z" fill="#F9CA29"/>
<path d="M46.1851 99.5209V100.281H78.1037V99.4409C67.4367 99.4409 56.8109 99.4809 46.1851 99.5209Z" fill="#F6B92B"/>
<path d="M86.1762 96.2009C86.1762 96.2009 84.4464 92.5609 78.6805 90.6409C77.9391 90.4009 76.9919 90.1609 75.8799 89.9209C75.8799 89.9209 77.1566 95.2809 78.351 97.1208L79.916 99.5608C79.916 99.5208 84.0758 98.5208 86.1762 96.2009Z" fill="#11B1C8"/>
<path d="M76.209 91.1208C76.662 92.8008 77.5269 95.8008 78.3506 97.0808L79.9157 99.5208C79.9157 99.5208 80.6158 99.3608 81.5631 99.0008C79.9568 96.2408 78.5154 93.3208 76.209 91.1208Z" fill="#149DB1"/>
<g style="mix-blend-mode:multiply">
<path d="M77.4855 95.281C79.3388 94.601 81.0686 93.681 82.6336 92.601C81.604 91.881 80.2861 91.201 78.6799 90.641C77.9385 90.401 76.9913 90.1611 75.8793 89.9211C68.3012 88.2811 53.5568 86.8411 53.5568 86.8411C53.5156 86.8011 50.9622 85.2411 46.6377 87.4411C47.379 88.4811 48.2027 89.4411 49.1088 90.361C56.1927 97.161 68.0952 98.841 77.4855 95.281Z" fill="#D4D4D4"/>
</g>
<g style="mix-blend-mode:multiply">
<path d="M63.5668 106.321C62.2489 106.121 59.7777 105.881 59.7777 105.881C59.7777 105.881 63.4844 104.721 63.8139 104.081C64.1434 103.401 63.3609 103.481 62.2077 103.841C61.0957 104.201 59.0776 104.761 59.0776 104.761C59.0776 104.761 60.1896 103.561 60.066 102.721C59.9425 101.881 57.3066 104.521 57.1419 104.641C56.9359 104.761 55.9063 104.281 55.165 104.401C55.165 104.401 47.0927 101.961 43.7978 100.281C41.6974 100.281 39.1439 100.321 37.0435 100.361C39.0615 102.881 54.8355 106.881 54.8355 106.881C54.8355 106.881 55.2062 108.321 57.0183 108.801C57.0183 108.801 58.4598 110.081 58.8717 111.001C59.3247 111.921 60.6014 111.841 60.3543 111.001C60.1072 110.161 58.9952 108.881 58.9952 108.881C58.9952 108.881 60.9309 109.561 62.0429 110.321C63.1549 111.121 64.0198 110.761 63.4844 109.521C62.9078 108.321 59.6954 107.521 59.6954 107.521C59.6954 107.521 62.8254 107.601 63.7315 107.641C64.7612 107.721 64.8847 106.521 63.5668 106.321Z" fill="#C6C6C6"/>
</g>
<g style="mix-blend-mode:multiply">
<path d="M82.4699 100.161L83.0877 101.561L72.503 104.601L70.938 103.881C70.938 103.881 70.3202 102.321 69.4553 102.321C68.5904 102.321 69.373 103.281 69.7848 104.121C70.1555 104.961 70.4026 105.761 70.4026 105.761C70.4026 105.761 67.2313 103.721 66.2429 103.441C65.2544 103.201 65.5427 104.121 66.2429 104.481C66.943 104.841 69.1259 106.241 69.1259 106.241C69.1259 106.241 65.6251 105.761 65.2544 106.241C64.8838 106.721 68.1374 106.921 68.6728 106.961C69.2494 107.041 64.7602 108.601 65.5015 109.081C66.2429 109.561 70.1967 107.521 69.7436 108.361C69.2906 109.201 67.2313 111.641 68.3845 111.401C69.4965 111.161 71.0204 108.721 71.0204 108.721C71.0204 108.721 72.709 108.481 73.0796 107.441C73.0796 107.441 86.1766 104.961 86.5884 102.481C86.712 101.681 86.5884 100.921 86.3825 100.201C85.0234 100.161 83.7466 100.121 82.4699 100.161Z" fill="#C6C6C6"/>
</g>
<path d="M59.735 91.4409C59.735 91.4409 58.17 96.7609 62.8239 96.6809C67.4778 96.6009 67.6014 92.1609 67.6014 92.1609L59.735 91.4409Z" fill="#EFCAA6"/>
<path d="M100.22 53.3613C102.197 52.2813 95.1128 51.8013 95.1128 51.8013C95.1128 51.8013 95.7306 50.0013 95.1128 47.9214C94.495 45.8814 93.0124 50.6013 93.0124 50.6013C87.7818 36.0814 61.9586 34.2415 51.8682 45.2814C41.7778 56.3213 46.6377 70.7212 46.6377 70.7212C46.6377 70.7212 50.3856 61.3612 58.6226 54.8813C58.6226 54.8813 55.2866 59.2813 56.5634 59.5213C57.7989 59.7213 61.0526 58.0413 75.0968 55.7613C75.0968 55.7613 72.255 59.1213 74.1083 59.5213C75.9205 59.8813 82.922 57.8013 82.922 57.8013C82.922 57.8013 81.1922 66.4412 84.0752 65.0812C86.9993 63.7212 87.9054 61.5612 87.9054 61.5612C87.9054 61.5612 91.9416 70.1612 89.5528 81.0011C109.239 63.5612 96.1425 54.4413 96.1425 54.4413C96.1425 54.4413 98.2017 54.4413 100.22 53.3613Z" fill="#EC7B23"/>
<path d="M87.8232 61.521C87.8232 61.521 86.8759 63.641 83.993 65.041C81.0688 66.401 82.8398 57.761 82.8398 57.761C82.8398 57.761 75.8383 59.841 74.0261 59.481C72.2139 59.121 75.0145 55.7211 75.0145 55.7211C60.9703 58.001 57.7167 59.681 56.4811 59.481C55.2456 59.281 58.5404 54.8411 58.5404 54.8411C50.3033 61.281 46.5555 70.6809 46.5555 70.6809C46.5555 70.6809 42.8076 76.6409 46.4319 83.4808C51.0447 92.1208 60.888 94.3208 70.237 94.3208C82.3455 94.3208 89.4294 80.9609 89.4294 80.9609C91.9005 70.1209 87.8232 61.521 87.8232 61.521Z" fill="#F4D9BF"/>
<path d="M48.7389 66.4412C48.7389 66.4412 49.2331 63.0412 46.0619 63.4012C42.8906 63.7612 42.6023 70.4012 46.3501 71.1211C46.3501 71.1211 47.6269 68.2412 48.7389 66.4412Z" fill="#EFCAA6"/>
<path d="M89.5539 80.681C89.5539 80.681 91.0366 77.241 94.1667 78.521C97.2968 79.801 94.4962 84.641 90.8719 85.481C87.2476 86.321 87.3711 84.241 87.3711 84.241L89.5539 80.681Z" fill="#EFCAA6"/>
<path d="M63.8536 87.1609C63.8536 87.1609 63.73 86.001 62.7004 86.5609C61.6296 87.1209 60.7235 90.2809 61.8355 90.5609C62.9063 90.8009 63.8124 88.1209 63.8536 87.1609Z" fill="white"/>
<path d="M58.9526 63.5213C58.9526 63.5213 59.1174 63.2813 59.4057 63.0413C59.7352 62.8013 60.2294 62.6013 60.7648 62.5613C61.0119 62.5613 61.3002 62.5613 61.5473 62.6413C61.7944 62.7213 62.0003 62.8413 62.1651 62.9613C62.2475 63.0413 62.3298 63.0813 62.371 63.1613C62.4122 63.2013 62.4534 63.2813 62.4946 63.3613C62.5357 63.4813 62.5769 63.5213 62.5769 63.5213C62.5769 63.5213 62.4946 63.5213 62.371 63.5213C62.2475 63.5213 62.1239 63.5213 61.9592 63.4813C61.7944 63.4813 61.5885 63.4813 61.4237 63.4813C61.2178 63.4813 61.0119 63.5213 60.806 63.5213C60.3941 63.5613 59.9411 63.5613 59.5704 63.5613C59.2409 63.5613 58.9526 63.5213 58.9526 63.5213Z" fill="#A95A16"/>
<path d="M76.2915 66.6812C76.2915 66.6812 76.621 66.4412 77.1564 66.2812C77.6918 66.0812 78.4331 66.0012 79.2157 66.0812C79.4216 66.1212 79.5863 66.1612 79.7923 66.2012C79.9982 66.2412 80.1629 66.3212 80.3277 66.4012C80.4924 66.4812 80.6571 66.6012 80.7807 66.6812C80.9043 66.8012 81.0278 66.9212 81.1102 67.0412C81.1926 67.1612 81.2749 67.2812 81.3161 67.4012C81.3985 67.4812 81.3985 67.6012 81.3985 67.6812C81.4397 67.8412 81.4397 67.9212 81.4397 67.9212C81.4397 67.9212 81.3573 67.8812 81.2337 67.7612C81.1514 67.7212 81.1102 67.6412 81.0278 67.6012C80.9454 67.5612 80.8219 67.4812 80.7395 67.4412C80.616 67.4012 80.4924 67.3612 80.3688 67.3212C80.2453 67.2812 80.1217 67.2412 79.957 67.2012C79.7923 67.1612 79.6687 67.1212 79.504 67.1212C79.3392 67.0812 79.1745 67.0412 79.0097 67.0412C78.6803 67.0012 78.3508 66.9612 78.0213 66.9212C77.6918 66.8812 77.4035 66.8412 77.1152 66.8012C76.7034 66.7612 76.2915 66.6812 76.2915 66.6812Z" fill="#A95A16"/>
<path d="M63.8537 78.2007C63.8537 78.2007 61.8768 80.4007 63.1947 80.9607C64.5127 81.5207 66.1189 80.9607 66.1189 80.9607C66.1189 80.9607 63.7301 81.3607 63.5242 80.1207C63.3183 78.8807 63.8537 78.2007 63.8537 78.2007Z" fill="#C39368"/>
<path d="M44.7026 67.2409C44.7026 67.2409 44.8674 67.1209 45.1969 67.0409C45.3616 67.0009 45.5675 66.9609 45.7735 67.0009C45.9794 67.0009 46.2265 67.0809 46.4324 67.1609C46.556 67.2009 46.6383 67.2809 46.7207 67.3609C46.8031 67.4409 46.8854 67.5209 46.9678 67.6009C47.0502 67.6809 47.0914 67.8009 47.1326 67.8809C47.1738 67.9609 47.1737 68.0409 47.2149 68.1209C47.2561 68.2809 47.2561 68.4009 47.2561 68.5209C47.2561 68.6009 47.2561 68.6809 47.2561 68.6809C47.2561 68.6809 47.2149 68.6409 47.1737 68.5609C47.1326 68.5209 47.1326 68.4809 47.0914 68.4409C47.0502 68.4009 47.009 68.3209 46.9678 68.2809C46.9266 68.2409 46.8855 68.1609 46.8443 68.0809C46.8031 68.0409 46.7619 67.9609 46.6795 67.9209C46.556 67.8009 46.4324 67.7209 46.2677 67.6409C46.1853 67.6009 46.1029 67.5609 46.0206 67.5209C45.9382 67.5209 45.8558 67.4409 45.7735 67.4409C45.6087 67.4009 45.444 67.3609 45.2792 67.3209C44.9086 67.2809 44.7026 67.2409 44.7026 67.2409Z" fill="#C39368"/>
<path d="M92.6422 82.2409C92.6422 82.2409 92.601 82.2009 92.4775 82.1609C92.3951 82.1209 92.2304 82.0809 92.1068 82.0009C92.0244 82.0009 91.942 81.9609 91.8597 81.9609C91.7773 81.9209 91.6537 81.9209 91.5714 81.9209C91.489 81.9209 91.3655 81.8809 91.2419 81.8809C91.1183 81.8809 91.036 81.8809 90.9124 81.9209C90.7889 81.9209 90.7065 81.9209 90.5829 81.9609C90.4594 82.0009 90.377 82.0009 90.2535 82.0009C90.1711 82.0409 90.0475 82.0009 89.9652 82.0409C89.8828 82.0809 89.8004 82.0809 89.6769 82.1209C89.3474 82.2009 89.0591 82.2409 89.0591 82.2409C89.0591 82.2409 89.2238 82.0809 89.5533 81.8809C89.6357 81.8409 89.718 81.7609 89.8004 81.7209C89.8828 81.6809 90.0063 81.6409 90.1299 81.6009C90.2534 81.5609 90.377 81.5209 90.4594 81.4809C90.5829 81.4409 90.7065 81.4409 90.83 81.4409C90.9536 81.4409 91.0772 81.4409 91.2007 81.4409C91.3243 81.4409 91.4478 81.4809 91.5714 81.5209C91.6949 81.5609 91.8185 81.5609 91.9009 81.6409C91.9832 81.6809 92.1068 81.7609 92.1892 81.8009C92.3539 81.9209 92.4363 82.0409 92.5187 82.1209C92.6422 82.1609 92.6422 82.2409 92.6422 82.2409Z" fill="#C39368"/>
<path d="M76.8265 74.4409C76.3323 75.6809 75.5086 76.5209 74.9732 76.3209C74.4378 76.1209 74.3554 74.961 74.8497 73.721C75.3439 72.481 76.1676 71.641 76.703 71.841C77.2384 72.041 77.2796 73.201 76.8265 74.4409Z" fill="#3D1A0B"/>
<path d="M76.0032 73.081C75.8385 73.441 75.5502 73.681 75.3854 73.601C75.2207 73.521 75.2207 73.161 75.4266 72.801C75.5914 72.441 75.8797 72.201 76.0444 72.281C76.2091 72.361 76.2091 72.721 76.0032 73.081Z" fill="white"/>
<path d="M60.8061 70.1209C60.3118 71.3609 59.4881 72.2009 58.9527 72.0009C58.4173 71.8009 58.3349 70.6409 58.8292 69.4009C59.3234 68.1609 60.1471 67.3209 60.6825 67.5209C61.2179 67.7209 61.3003 68.8809 60.8061 70.1209Z" fill="#3D1A0B"/>
<path d="M60.0237 68.7612C59.859 69.1212 59.5707 69.3612 59.4059 69.2812C59.2412 69.2012 59.2412 68.8412 59.4471 68.4812C59.6119 68.1212 59.9002 67.8812 60.0649 67.9612C60.2297 68.0412 60.2296 68.4012 60.0237 68.7612Z" fill="white"/>
<path d="M81.4398 81.6807C81.275 82.5207 79.4629 82.8807 77.4036 82.4807C75.3443 82.0807 73.7793 81.0807 73.944 80.2407C74.1088 79.4008 75.9209 79.0408 77.9802 79.4408C80.0807 79.8407 81.6045 80.8407 81.4398 81.6807Z" fill="#F9CBC0"/>
<path d="M57.9232 74.7611C57.7584 75.601 55.9463 75.961 53.887 75.561C51.8277 75.161 50.2627 74.1611 50.4274 73.3211C50.5922 72.4811 52.4043 72.1211 54.4636 72.5211C56.5641 72.9611 58.1291 73.9611 57.9232 74.7611Z" fill="#F9CBC0"/>
<path d="M41.6957 91.6409C41.6957 91.6409 35.3531 97.8008 36.877 100.321C38.442 102.841 54.5043 107.081 54.5043 107.081C54.5043 107.081 54.875 108.521 56.6872 109.001C56.6872 109.001 58.1286 110.281 58.5405 111.201C58.9935 112.121 60.2703 112.041 60.0232 111.201C59.7761 110.361 58.6641 109.081 58.6641 109.081C58.6641 109.081 60.5998 109.761 61.7118 110.521C62.8238 111.321 63.6887 110.961 63.1533 109.721C62.5767 108.521 59.3642 107.721 59.3642 107.721C59.3642 107.721 62.4943 107.801 63.4004 107.841C64.3065 107.921 64.43 106.681 63.1121 106.521C61.7941 106.321 59.323 106.081 59.323 106.081C59.323 106.081 63.0297 104.921 63.3592 104.281C63.6887 103.601 62.9062 103.681 61.753 104.041C60.641 104.401 58.6229 104.961 58.6229 104.961C58.6229 104.961 59.7349 103.761 59.6113 102.921C59.4878 102.081 56.8519 104.721 56.6872 104.841C56.4812 104.961 55.4516 104.481 54.7103 104.601C54.7103 104.601 42.6018 100.921 41.9428 99.5208C41.2427 98.1208 44.867 94.0009 44.867 94.0009L41.6957 91.6409Z" fill="#F4D9BF"/>
<path d="M81.5222 99.0007L82.7166 101.721L72.132 104.761L70.5669 104.041C70.5669 104.041 69.9491 102.481 69.0843 102.481C68.2194 102.481 69.0019 103.441 69.4137 104.281C69.7844 105.121 70.0315 105.921 70.0315 105.921C70.0315 105.921 66.8603 103.881 65.8718 103.601C64.8834 103.361 65.1717 104.281 65.8718 104.641C66.572 105.001 68.7548 106.401 68.7548 106.401C68.7548 106.401 65.254 105.921 64.8833 106.401C64.5127 106.881 67.7663 107.081 68.3017 107.121C68.8783 107.201 64.3891 108.761 65.1305 109.241C65.8718 109.721 69.8256 107.681 69.3726 108.521C68.9195 109.361 66.8602 111.801 68.0134 111.561C69.1254 111.321 70.6493 108.881 70.6493 108.881C70.6493 108.881 72.3379 108.641 72.7086 107.601C72.7086 107.601 85.8055 105.121 86.2174 102.641C86.6292 100.161 84.6523 97.4807 84.6523 97.4807C84.6523 97.4807 82.7578 98.6007 81.5222 99.0007Z" fill="#F4D9BF"/>
<g opacity="0.4">
<path opacity="0.4" d="M48.7388 66.4409C50.6333 63.161 53.8869 58.521 58.5821 54.841L61.2591 52.561C51.6629 56.721 48.7388 66.4409 48.7388 66.4409Z" fill="#D7711F"/>
<path opacity="0.4" d="M56.481 59.481C57.7165 59.681 60.9702 58.0011 75.0144 55.7211C75.0144 55.7211 74.9732 55.7611 74.932 55.8411C76.7853 54.2811 78.927 53.1211 78.927 53.1211C69.166 53.9611 56.481 59.481 56.481 59.481Z" fill="#D7711F"/>
<path opacity="0.4" d="M73.5327 59.2012C73.6151 59.3612 73.7798 59.4412 74.0269 59.4812C75.8391 59.8412 82.8406 57.7612 82.8406 57.7612C82.8406 57.7612 82.8406 57.8412 82.7994 57.9612C83.7879 56.3212 84.9822 54.5212 84.9822 54.5212C78.8044 58.7612 73.6151 59.1612 73.5327 59.2012Z" fill="#D7711F"/>
<path opacity="0.4" d="M86.9995 57.6812C87.5761 62.7611 83.3752 65.1611 83.334 65.1611C83.5399 65.2011 83.7458 65.1611 83.993 65.0411C86.9171 63.6811 87.8232 61.5211 87.8232 61.5211C87.8232 61.5211 91.8181 69.9611 89.5118 80.681C95.1953 69.9211 86.9995 57.6812 86.9995 57.6812Z" fill="#D7711F"/>
</g>
<path d="M1.00045 7.44121C1.46552 5.88854 3.09326 5.06987 4.45941 4.36411C12.0459 0.553031 21.0567 0.49657 29.3698 1.00471C38.3515 1.56932 47.2751 3.15021 55.5883 6.50961C58.0008 7.49767 60.4134 8.54219 62.5934 9.89724C64.5118 11.1111 65.1513 13.0026 64.9188 15.1481C64.6572 17.4629 58.4078 31.4087 54.2803 32.3967C51.9258 32.9613 49.4842 33.1025 47.2751 32.5661C42.7697 31.4934 38.6131 29.6866 34.4566 27.7952C34.3694 28.1057 34.3112 28.4163 34.3403 28.755C34.3693 30.0254 34.9507 31.2957 35.5611 32.3967C36.6947 34.4575 38.6713 36.0384 40.6188 37.337C41.8686 38.1557 43.1767 38.8615 44.5137 39.4825C45.4439 40.0471 46.4903 40.527 47.4495 40.9505C47.6239 41.0352 47.8274 41.1199 48.0018 41.2328C47.8564 41.2046 47.7402 41.1763 47.5948 41.1481C45.8218 40.894 44.1359 40.5553 42.4209 40.0189C39.7758 39.172 37.1889 38.1275 34.6019 37.1112C34.1078 36.8853 33.6136 36.6595 33.1485 36.4054C30.4162 35.0504 27.9746 33.3566 25.8818 31.2111C24.7482 30.0536 23.9052 28.9809 23.353 27.7387C18.9348 28.0493 14.5457 28.4727 10.1275 28.388C8.76133 28.3598 7.3661 28.388 6.14529 27.7105C4.77914 26.9765 3.93621 25.198 3.20953 23.9277C1.23298 20.5683 0.419106 16.6725 0.448166 12.8332C0.506302 11.0547 0.477242 9.16325 1.00045 7.44121ZM51.6642 30.59C53.8443 30.4206 55.1813 29.6302 56.344 27.7952C57.7683 25.5368 59.1054 23.2501 60.2971 20.8506C61.2854 18.8462 62.7678 16.4749 62.9131 14.2447C63.0294 12.4944 62.3899 11.3652 61.0819 10.2078C60.9947 10.1231 60.9075 10.236 60.9657 10.3207C62.9422 12.6356 62.0702 14.894 60.9075 17.35C60.1518 18.9027 59.4251 20.4836 58.5822 22.008C57.623 23.7583 56.6056 25.4803 55.5592 27.2024C55.1523 27.8517 54.4837 28.9244 53.8443 29.3196C53.1176 29.7995 52.3328 29.9407 51.4898 30.1665C51.2573 30.2512 51.4608 30.6182 51.6642 30.59ZM46.2287 29.9407C47.1007 30.0819 47.9727 30.1383 48.8738 30.1948C44.2231 29.0373 39.8921 27.2024 35.3867 25.6497C38.8166 27.5976 42.4209 29.0656 46.2287 29.9407ZM41.8686 39.0591C41.9849 39.0873 42.014 38.9461 41.9268 38.8897C39.3108 37.704 36.4912 36.2078 35.067 33.6106C33.8171 31.2958 32.7707 28.4727 33.6427 25.8755C33.6718 25.8191 33.5555 25.7344 33.5264 25.7909C30.5034 31.5781 36.7528 37.3935 41.8686 39.0591Z" fill="#E66D74"/>
<path d="M18.7021 20.3142V10.603H21.3472L23.411 14.16C23.9923 15.1763 24.6027 16.3902 25.0387 17.4912H25.0969C24.9516 16.2208 24.8934 14.894 24.8934 13.4543V10.6313H26.9572V20.3425H24.5737L22.4518 16.5878C21.8705 15.5433 21.2019 14.3012 20.7078 13.172L20.6496 13.2002C20.7078 14.4706 20.7368 15.8539 20.7368 17.4347V20.3707H18.7021V20.3142Z" fill="white"/>
<path d="M38.0611 15.374C38.0611 18.564 36.0846 20.4836 33.1488 20.4836C30.184 20.4836 28.4399 18.3099 28.4399 15.5434C28.4399 12.6356 30.3584 10.4619 33.2941 10.4619C36.4043 10.4619 38.0611 12.6921 38.0611 15.374ZM30.8525 15.4869C30.8525 17.3783 31.7827 18.7334 33.2941 18.7334C34.8347 18.7334 35.7067 17.3219 35.7067 15.4304C35.7067 13.6802 34.8347 12.184 33.2941 12.184C31.7536 12.184 30.8525 13.5955 30.8525 15.4869Z" fill="white"/>
<path d="M39.2236 19.1568C39.2236 18.3946 39.7759 17.8582 40.5607 17.8582C41.3455 17.8582 41.8687 18.3946 41.8687 19.1568C41.8687 19.919 41.3455 20.4554 40.5607 20.4554C39.7468 20.4836 39.2236 19.919 39.2236 19.1568ZM39.7178 17.1242L39.369 10.603H41.7234L41.4037 17.1242H39.7178Z" fill="white"/>
</svg>
