<svg width="108" height="156" viewBox="0 0 108 156" fill="none" xmlns="http://www.w3.org/2000/svg">
<path d="M30.8608 101.641V101.961H53.845L53.7548 101.553C46.1235 101.553 38.4922 101.611 30.8608 101.641Z" fill="white"/>
<path d="M12.7637 102.257V159.956H71.8491V102.083L12.7637 102.257Z" fill="#F2F2F2"/>
<path d="M71.8481 159.956L74.0778 158.559V103.06L71.8481 102.082V159.956Z" fill="#505B75"/>
<path d="M70.6979 103.619C70.6979 104.038 70.3742 104.352 69.9427 104.352C69.5112 104.352 69.1875 104.003 69.1875 103.619C69.1875 103.2 69.5112 102.885 69.9427 102.885C70.3383 102.85 70.6979 103.2 70.6979 103.619Z" fill="#C6C6C6"/>
<path d="M14.9933 103.619C14.9933 104.038 14.6697 104.353 14.2381 104.353C13.8066 104.353 13.4829 104.003 13.4829 103.619C13.4829 103.2 13.8066 102.886 14.2381 102.886C14.6337 102.851 14.9933 103.2 14.9933 103.619Z" fill="#C6C6C6"/>
<path d="M27.9033 127.998L22.2573 131.211C22.2573 131.211 28.191 143.296 29.4137 149.338C29.4137 149.338 35.0957 136.38 62.3548 110.954L61.276 109.871C61.276 109.871 39.4471 125.308 31.8951 137.952L27.9033 127.998Z" fill="#26B545"/>
<path d="M50.7749 93.5257C50.7389 93.5257 50.7029 93.5257 50.667 93.5257C48.9408 93.4558 34.3403 93.4908 33.5491 93.5257C33.5491 93.5257 32.0028 93.5955 29.8091 93.9099C31.4993 98.2757 28.4066 99.568 26.9321 99.8823V102.222H54.443L53.8676 99.3235C51.2783 98.4154 50.7749 95.6213 50.7749 93.5257Z" fill="#006AB0"/>
<path d="M50.7752 94.1187C50.7752 93.9091 50.7392 93.7345 50.7392 93.5249C50.7033 93.5249 50.6673 93.5249 50.6313 93.5249C48.9052 93.4551 34.3046 93.49 33.5135 93.5249C33.5135 93.5249 31.9671 93.5948 29.7734 93.9091C29.8094 93.9441 29.8094 94.0139 29.8094 94.0488C36.822 94.0488 43.7986 94.0838 50.7752 94.1187Z" fill="white"/>
<path d="M30.2767 96.1792C30.2767 96.3888 30.2767 96.5634 30.2407 96.7381C37.2533 96.773 44.3018 96.8079 51.3144 96.8079C51.2065 96.5634 51.1346 96.319 51.0627 96.0745C44.122 96.0745 37.1814 96.1443 30.2767 96.1792Z" fill="white"/>
<path d="M53.041 98.9385C44.9856 98.9385 36.9301 98.9385 28.9106 99.0083C28.6229 99.2179 28.2992 99.3925 27.9756 99.5322C36.6064 99.5672 45.2733 99.5672 53.9041 99.5672L53.8682 99.3576C53.5445 99.2179 53.2568 99.0782 53.041 98.9385Z" fill="white"/>
<g style="mix-blend-mode:multiply">
<path d="M36.2826 106.902C38.1526 106.483 39.4832 104.981 37.2895 105.086C35.0959 105.156 34.017 106.553 33.7293 106.483C33.5495 106.448 29.6297 104.108 26.429 102.222C24.5231 102.222 22.6531 102.222 20.7471 102.257C24.6669 104.632 31.7514 108.683 31.7514 108.683C31.7514 108.683 31.3918 109.521 32.0391 110.604C32.0391 110.604 31.8953 115.599 32.8303 115.389C33.7653 115.179 33.118 110.464 33.5495 111.303C33.981 112.141 35.8151 115.738 36.3905 114.83C36.9659 113.922 33.9811 109.556 35.3836 110.604C36.7501 111.652 38.9438 113.713 39.3753 112.735C39.8069 111.757 35.0239 109.207 37.0378 109.556C39.0876 109.906 42.1084 110.185 40.7419 108.858C39.4113 107.496 34.3766 107.356 36.2826 106.902Z" fill="#C6C6C6"/>
</g>
<path d="M65.5918 65.2344C65.5918 65.2344 77.3513 66.9109 79.9766 82.069L77.711 85.0378L75.8409 80.9514L77.1356 86.0856L73.935 88.0065L72.4246 83.2915L73.1438 88.0065L68.3609 88.9845C68.3609 88.9845 68.5766 79.1003 65.8795 75.3631L65.5918 65.2344Z" fill="#E08804"/>
<path opacity="0.3" d="M67.4255 79.1352C69.1517 75.0138 69.2236 70.3337 68.1448 65.9678C66.6344 65.3741 65.6274 65.2344 65.6274 65.2344L65.9151 75.398C66.5625 76.341 67.0659 77.6683 67.4255 79.1352Z" fill="#E08804"/>
<path d="M37.6486 92.3027C37.6486 92.3027 36.354 98.7292 39.6265 99.1483C42.899 99.5675 44.1217 93.9443 43.9779 92.3027H37.6486Z" fill="#EFCAA6"/>
<path d="M29.7736 93.9094C27.3282 94.2587 24.0557 94.9223 21.2147 96.1447C15.7844 98.4848 16.4318 99.7422 17.6904 100.72C18.9131 101.698 31.1042 108.683 31.1042 108.683C31.1042 108.683 30.7446 109.522 31.3919 110.604C31.3919 110.604 31.2481 115.599 32.1831 115.389C33.1181 115.18 32.4708 110.465 32.9023 111.303C33.3338 112.141 35.1679 115.739 35.7433 114.83C36.3187 113.922 33.3338 109.557 34.7364 110.604C36.1029 111.652 38.2966 113.713 38.7281 112.735C39.1597 111.757 34.3767 109.207 36.3906 109.557C38.4404 109.906 41.4612 110.185 40.0947 108.858C38.7281 107.531 33.6935 107.391 35.5994 106.937C37.4695 106.518 38.8001 105.016 36.6064 105.121C34.4127 105.191 33.3339 106.588 33.0462 106.518C32.7585 106.448 21.6462 99.812 21.6462 99.812C21.6462 99.812 25.1345 98.2753 26.8607 97.8212V99.8819C28.3711 99.5326 31.4638 98.2753 29.7736 93.9094Z" fill="#EFCAA6"/>
<path d="M29.4503 96.9829C29.4503 96.9829 29.3064 97.0877 29.0906 97.1925C28.8749 97.2973 28.5512 97.437 28.2276 97.5417C27.9039 97.6465 27.5802 97.7164 27.3285 97.7513C27.0768 97.7862 26.897 97.7862 26.897 97.7862C26.897 97.7862 27.0408 97.6814 27.2566 97.5767C27.4724 97.4719 27.796 97.3322 28.1197 97.2274C28.4433 97.1226 28.767 97.0528 29.0187 97.0178C29.2705 96.9829 29.4503 96.9829 29.4503 96.9829Z" fill="#C39368"/>
<path d="M84.0397 70.9624C84.2554 70.3337 87.0964 66.7362 86.3772 66.1774C85.658 65.6186 83.68 69.705 83.1047 69.3557C82.5293 69.0065 83.752 63.2086 82.3135 64.012C80.875 64.7803 81.6662 69.5304 80.9469 69.0763C80.2277 68.5873 79.7242 62.9642 78.6094 63.9421C77.5306 64.92 80.1917 69.9495 79.1129 69.7399C78.034 69.5304 76.5236 68.8668 75.4088 69.5304C74.294 70.159 78.3217 70.5083 78.6813 71.5212C79.041 72.4991 78.969 72.9183 78.969 72.9183C78.969 72.9183 74.4738 81.0911 67.5332 86.0157C60.7364 90.8356 52.7168 93.525 50.7749 93.5599C50.7749 95.6904 51.3143 98.4496 53.8676 99.3926L53.2922 96.4588C53.2922 96.4588 69.6909 95.3062 82.3495 72.6738C82.3495 72.6738 82.9968 72.8833 83.5722 72.2546C83.5722 72.2546 87.9235 71.8355 87.9235 70.9973C87.8876 70.1241 83.8239 71.591 84.0397 70.9624Z" fill="#EFCAA6"/>
<path d="M52.6812 94.2241C52.6812 94.2241 52.789 94.3988 52.8969 94.6432C53.0048 94.8877 53.1127 95.237 53.2206 95.5863C53.2925 95.9355 53.3644 96.2848 53.4004 96.5642C53.4363 96.8436 53.4004 97.0183 53.4004 97.0183C53.4004 97.0183 53.2925 96.8436 53.1846 96.5991C53.0767 96.3546 52.9688 96.0054 52.8969 95.6561C52.825 95.3068 52.7531 94.9576 52.7171 94.6782C52.6812 94.3988 52.6812 94.2241 52.6812 94.2241Z" fill="#C39368"/>
<g style="mix-blend-mode:multiply">
<path d="M36.1388 98.694C38.8 99.0433 41.5331 99.0084 44.1943 98.5543C49.4807 97.6113 54.4794 95.1315 58.0396 91.2546C54.6232 92.7216 51.7822 93.5249 50.7394 93.5249C50.7034 93.5249 50.6674 93.5249 50.6315 93.5249C49.9122 93.4899 47.0712 93.4899 43.9066 93.4899C43.9785 93.0359 43.9785 92.6168 43.9426 92.3374H37.6133C37.6133 92.3374 37.5054 92.7914 37.4334 93.4899C35.3117 93.4899 33.7294 93.5249 33.4776 93.5249C33.4776 93.5249 31.9313 93.5947 29.7376 93.9091C28.8386 94.0488 27.7957 94.2234 26.7168 94.433C28.9824 97.0874 32.7584 98.24 36.1388 98.694Z" fill="#D4D4D4"/>
</g>
<path d="M17.6901 66.1073C17.6901 66.1073 13.9861 64.5705 8.376 69.0062C2.76594 73.4419 0.572266 82.5578 0.572266 82.5578L2.19055 83.4659C2.19055 83.4659 5.17539 77.4235 7.90849 74.9088C7.90849 74.9088 4.06057 80.4971 3.26941 84.5835C3.26941 84.5835 6.64983 85.8409 8.01638 85.9456C8.01638 85.9456 9.4189 79.3794 10.4618 78.0522C10.4618 78.0522 8.95139 83.6056 9.09524 86.4695C9.09524 86.4695 12.0441 87.3078 14.3816 86.9934C14.3816 86.9934 13.7703 78.8555 17.3665 73.7562L17.6901 66.1073Z" fill="#E08804"/>
<path opacity="0.3" d="M14.9574 65.9329C14.4539 67.33 14.1303 68.8668 13.9864 70.0194C13.6628 72.2197 13.5549 74.4201 13.8785 76.6205C14.0943 78.0176 14.382 79.3797 14.8135 80.7069C15.2091 78.4018 15.9643 75.8172 17.4388 73.7565L17.7265 66.0726C17.6905 66.1076 16.6836 65.6885 14.9574 65.9329Z" fill="#E08804"/>
<path d="M67.3535 69.8797C65.6273 54.4072 48.2937 40.8905 29.126 51.8226C29.126 51.8226 17.4743 57.1664 15.4964 70.648C13.5185 84.1297 20.9266 89.2989 24.6307 90.207C24.6307 90.207 18.5891 83.5709 20.4232 72.2197C20.4232 72.2197 24.8465 72.6039 31.2837 72.8135C31.7152 70.3686 32.7941 66.0727 35.4553 63.3833C35.4553 63.3833 32.9379 67.6094 32.7941 72.8484C35.2035 72.9183 37.8647 72.9183 40.6697 72.8834C40.7417 70.7878 41.1013 67.2602 42.6476 64.2565C42.6476 64.2565 41.8565 68.5175 41.8565 72.8484C45.9202 72.7786 50.1996 72.5341 54.3353 72.08C54.3712 70.3337 54.3353 67.6793 53.7958 65.2344C53.7958 65.2344 55.0185 68.3429 55.7378 71.9054C57.8595 71.6609 59.9094 71.3117 61.8513 70.9275C61.8513 70.9275 62.8582 78.8907 59.298 87.3081C59.4059 87.1684 59.4419 87.0636 59.4419 87.0636C59.4419 87.0636 68.9358 84.025 67.3535 69.8797Z" fill="#F39F00"/>
<path d="M61.9229 70.9621C59.945 71.3463 57.8952 71.6956 55.8094 71.9401C55.0902 68.3776 53.8675 65.2691 53.8675 65.2691C54.4069 67.7139 54.4429 70.4033 54.4069 72.1147C50.2713 72.5688 45.9918 72.8132 41.9281 72.8831C41.9281 68.5522 42.7193 64.2911 42.7193 64.2911C41.1369 67.2948 40.8133 70.8224 40.7414 72.918C37.9723 72.9529 35.3111 72.9529 32.8657 72.8831C33.0095 67.6441 35.5269 63.418 35.5269 63.418C32.8657 66.1073 31.7509 70.3684 31.3553 72.8482C24.9541 72.6735 20.4948 72.2544 20.4948 72.2544C20.2071 73.9658 20.1352 75.5724 20.1711 77.0743C20.2431 79.6589 20.6746 81.8592 21.286 83.7453C22.6166 87.9714 24.7383 90.2766 24.7383 90.2766C24.7383 90.2766 31.1755 97.8556 43.4745 96.249C54.4788 94.817 58.6864 88.7049 59.4416 87.4126C60.0169 86.0155 60.4845 84.6534 60.8441 83.3262C61.3835 81.3004 61.7072 79.4144 61.887 77.7379C62.2466 73.6864 61.9229 70.9621 61.9229 70.9621Z" fill="#F4D9BF"/>
<path d="M24.6666 59.1223C24.2711 59.5414 23.8755 59.9955 23.5159 60.4495C23.1562 60.9036 22.7966 61.3925 22.437 61.8466L21.9335 62.58L21.466 63.3135C21.1783 63.8025 20.8547 64.3264 20.6029 64.8503C20.4591 65.0948 20.3153 65.3742 20.2074 65.6187L19.8478 66.422L19.5241 67.2253C19.4162 67.5047 19.3083 67.7841 19.2364 68.0635C19.1285 68.3429 19.0566 68.6224 18.9487 68.9018L18.7329 69.74C18.661 70.0194 18.5891 70.2988 18.5172 70.5782L18.3373 71.4514L18.3014 71.3466C18.4452 71.4514 18.625 71.5562 18.8049 71.661C18.9847 71.7658 19.1645 71.8356 19.3443 71.9055C19.5241 71.9753 19.7039 72.0452 19.9197 72.0801C20.0995 72.1499 20.3153 72.1499 20.4951 72.2198C20.2793 72.1849 20.0995 72.2198 19.8837 72.1499C19.6679 72.115 19.4881 72.0801 19.3083 72.0102C19.1285 71.9404 18.9127 71.8705 18.7329 71.8007C18.5531 71.7308 18.3733 71.626 18.1935 71.5213L18.1216 71.4863V71.4165L18.2654 70.5433C18.3014 70.2639 18.3374 69.9496 18.4093 69.6702L18.5891 68.797C18.661 68.5176 18.7689 68.2382 18.8408 67.9587C18.9127 67.6793 19.0206 67.3999 19.1285 67.1205L19.4522 66.2823L19.8118 65.479C19.9197 65.1995 20.0635 64.9551 20.2074 64.6756C20.3512 64.4312 20.4951 64.1517 20.6389 63.9073C20.7828 63.6628 20.9626 63.3834 21.1064 63.1389L21.6099 62.4054L22.1493 61.7069C22.5089 61.2528 22.9045 60.7639 23.3361 60.3447C23.7676 59.9256 24.1991 59.4716 24.6666 59.1223Z" fill="#CC6809"/>
<path d="M59.9458 59.1223C60.1256 59.2969 60.3054 59.5065 60.4493 59.6811C60.5931 59.8907 60.737 60.1003 60.8808 60.3098C61.1685 60.7289 61.3843 61.183 61.636 61.637L61.9597 62.3006C62.0676 62.5451 62.1754 62.7547 62.2833 62.9992C62.3912 63.2437 62.4631 63.4532 62.571 63.6977C62.6789 63.9422 62.7508 64.1867 62.8228 64.4312C62.8947 64.6756 63.0026 64.9201 63.0385 65.1646L63.2543 65.8981L63.4341 66.6315C63.506 66.876 63.542 67.1205 63.578 67.365L63.6858 68.0985L63.7578 68.8668C63.7937 69.3558 63.7937 69.8797 63.7937 70.3687V70.4385L63.7218 70.4735C63.1464 70.6132 62.5351 70.7878 61.9597 70.9275C62.5351 70.683 63.0745 70.4735 63.6499 70.2639L63.578 70.3687C63.542 69.8797 63.506 69.3907 63.4341 68.9018L63.3262 68.1683L63.1824 67.4348C63.1464 67.1904 63.0745 66.9459 63.0385 66.7014L62.8587 65.9679L62.6429 65.2345C62.571 64.99 62.4991 64.7455 62.4272 64.5359C62.3552 64.2915 62.2833 64.047 62.1754 63.8374C62.1035 63.5929 62.0316 63.3484 61.9237 63.1389C61.7439 62.6848 61.5641 62.1959 61.3483 61.7418C61.1325 61.2878 60.9168 60.8337 60.701 60.3797C60.5931 60.1701 60.4852 59.9256 60.3414 59.7161C60.1975 59.5065 60.1256 59.2969 59.9458 59.1223Z" fill="#CC6809"/>
<path d="M45.9917 76.0616C45.9917 76.0616 46.9267 74.5248 48.0056 74.8042C49.0844 75.0836 49.48 76.0616 49.6239 76.4807C49.8037 76.8998 48.3292 74.9439 45.9917 76.0616Z" fill="#CC6809"/>
<path d="M29.6299 76.5855C29.6299 76.5855 30.5649 75.0487 31.6437 75.3281C32.7226 75.6076 33.1182 76.5855 33.262 77.0046C33.4418 77.4237 31.9674 75.4679 29.6299 76.5855Z" fill="#CC6809"/>
<path d="M33.1538 88.3908C33.1538 88.3908 39.8787 92.7915 48.1859 88.0764C48.1859 88.0764 46.6395 94.1537 40.6339 94.2934C34.5923 94.4331 33.1538 88.3908 33.1538 88.3908Z" fill="white"/>
<path d="M39.8068 83.9901C39.8068 83.9901 39.7349 83.9901 39.627 83.9901C39.5191 83.9901 39.3393 83.9901 39.1595 84.025C39.0876 84.0599 38.9797 84.0948 38.9077 84.1298C38.8358 84.1996 38.7999 84.2695 38.7279 84.3393C38.7279 84.3743 38.692 84.4441 38.692 84.479C38.692 84.5489 38.656 84.6187 38.692 84.6537C38.692 84.7235 38.7279 84.8283 38.7999 84.9331C38.8718 85.0379 38.9437 85.1077 39.0156 85.2125C39.0875 85.2823 39.1954 85.3871 39.3033 85.457C39.4112 85.5268 39.4831 85.5967 39.591 85.6665C39.6989 85.7364 39.7708 85.7713 39.8787 85.8412C40.0585 85.946 40.2024 86.0158 40.3103 86.0507C40.4181 86.0857 40.4901 86.0857 40.4901 86.0857C40.4901 86.0857 40.4181 86.1206 40.3103 86.1206C40.1664 86.1206 39.9866 86.1206 39.7708 86.0507C39.5551 85.9809 39.3033 85.911 39.0876 85.7713C38.9797 85.7015 38.8358 85.6316 38.7279 85.5268C38.62 85.422 38.5122 85.3173 38.4402 85.1776C38.3683 85.0379 38.2964 84.8982 38.2964 84.6886C38.2964 84.5838 38.3324 84.5489 38.3324 84.479C38.3683 84.3743 38.4043 84.3393 38.4402 84.2345C38.5122 84.0948 38.656 83.9901 38.7639 83.9202C38.9077 83.8504 39.0156 83.8154 39.1595 83.8154C39.4112 83.8154 39.5551 83.8853 39.6989 83.9202C39.7708 83.9551 39.8068 83.9901 39.8068 83.9901Z" fill="#C39368"/>
<path d="M17.9774 77.1094C15.496 78.0524 16.5029 83.5359 21.2139 83.6756C20.6026 81.8245 20.171 79.5892 20.0991 77.0046C19.5956 76.83 18.9124 76.7602 17.9774 77.1094Z" fill="#EFCAA6"/>
<path d="M64.1524 77.1093C63.1814 76.9346 62.3903 77.214 61.8149 77.6332C61.6351 79.3096 61.3114 81.2306 60.772 83.2214C61.4552 83.2214 62.2464 83.1166 63.1455 82.8372C66.0943 82.0339 66.5259 77.5982 64.1524 77.1093Z" fill="#EFCAA6"/>
<path d="M17.6895 79.6243C17.6895 79.6243 17.9412 79.5544 18.3368 79.5894C18.5166 79.5894 18.7683 79.6243 18.9841 79.6941C19.1998 79.764 19.4516 79.8688 19.6674 80.0085C19.8831 80.1482 20.0989 80.3228 20.2427 80.4975C20.3147 80.6022 20.3866 80.6721 20.4585 80.7769C20.5304 80.8817 20.5664 80.9515 20.6024 81.0563C20.6743 81.2309 20.7102 81.4056 20.7102 81.5103C20.7102 81.6151 20.7102 81.685 20.7102 81.685C20.7102 81.685 20.6743 81.65 20.6024 81.5453C20.5664 81.5103 20.5304 81.4405 20.4945 81.3706C20.4585 81.3008 20.3866 81.2658 20.3506 81.1611C20.3147 81.0912 20.2427 81.0214 20.1708 80.9515C20.0989 80.8817 20.027 80.8118 19.955 80.7419C19.8831 80.6721 19.7752 80.6022 19.7033 80.5324C19.6314 80.4625 19.5235 80.3927 19.4156 80.3578C19.3077 80.2879 19.2358 80.253 19.1279 80.1831C19.02 80.1482 18.9122 80.0783 18.8402 80.0434C18.6245 79.9386 18.4446 79.8688 18.2648 79.7989C17.9052 79.6942 17.6895 79.6243 17.6895 79.6243Z" fill="#C39368"/>
<path d="M64.0807 80.148C64.0807 80.148 63.865 80.0781 63.5413 80.0781C63.4694 80.0781 63.3615 80.0781 63.2896 80.1131C63.2176 80.1131 63.1098 80.148 63.0378 80.1829C62.858 80.2528 62.6782 80.3226 62.4984 80.4274C62.4265 80.4623 62.3186 80.5322 62.2467 80.602C62.1748 80.6719 62.0669 80.7417 62.0309 80.8116C61.959 80.8814 61.8871 80.9513 61.8151 81.0211C61.7432 81.091 61.6713 81.1609 61.6353 81.1958C61.5274 81.3006 61.4196 81.4053 61.3476 81.4752C61.2757 81.545 61.2397 81.58 61.2397 81.58C61.2397 81.58 61.2397 81.5101 61.2757 81.4403C61.2757 81.4053 61.3117 81.3355 61.3476 81.2656C61.3836 81.1958 61.3836 81.1259 61.4555 81.0561C61.5274 80.9164 61.6353 80.7068 61.7792 80.5671C61.8511 80.4972 61.923 80.3925 62.0309 80.3226C62.1028 80.2528 62.2107 80.148 62.3186 80.1131C62.4265 80.0432 62.5344 80.0083 62.6423 79.9384C62.7501 79.9035 62.894 79.8686 63.0019 79.8336C63.1098 79.8336 63.2536 79.7987 63.3615 79.8336C63.4694 79.8336 63.5773 79.8686 63.6492 79.9035C63.9369 79.9733 64.0807 80.148 64.0807 80.148Z" fill="#C39368"/>
<path d="M34.0529 81.999C34.1249 83.2913 33.6933 84.3391 33.082 84.374C32.5066 84.4089 31.9671 83.3611 31.9312 82.0689C31.8592 80.7766 32.2908 79.7288 32.9021 79.6938C33.4775 79.6938 34.017 80.7067 34.0529 81.999Z" fill="#673121"/>
<path d="M32.8306 81.0911C32.8306 81.4753 32.6508 81.7897 32.471 81.7897C32.2912 81.7897 32.1473 81.4753 32.1833 81.0562C32.1833 80.672 32.3631 80.3577 32.5429 80.3577C32.7227 80.3577 32.8306 80.7069 32.8306 81.0911Z" fill="white"/>
<path d="M48.9767 81.021C49.0487 82.3133 48.6171 83.3611 48.0058 83.396C47.4304 83.4309 46.891 82.3831 46.855 81.0908C46.7831 79.7985 47.2146 78.7507 47.826 78.7158C48.4013 78.7158 48.9048 79.7287 48.9767 81.021Z" fill="#673121"/>
<path d="M47.7186 80.1129C47.7186 80.497 47.5388 80.8114 47.359 80.8114C47.1792 80.8114 47.0713 80.497 47.0713 80.0779C47.0713 79.6937 47.2511 79.3794 47.4309 79.3794C47.6107 79.3794 47.7186 79.6937 47.7186 80.1129Z" fill="white"/>
<path d="M31.499 86.086C31.499 86.8195 29.9886 87.4132 28.1545 87.4132C26.3205 87.4132 24.8101 86.8195 24.8101 86.0511C24.8101 85.3176 26.3205 84.7239 28.1545 84.7239C30.0245 84.7239 31.499 85.3526 31.499 86.086Z" fill="#F9CBC0"/>
<path d="M56.7084 84.7585C56.7084 85.492 55.198 86.0858 53.364 86.0858C51.5299 86.0858 50.0195 85.492 50.0195 84.7236C50.0195 83.9902 51.5299 83.3615 53.364 83.3964C55.198 83.3964 56.7084 83.9902 56.7084 84.7585Z" fill="#F9CBC0"/>
<path d="M29.9536 72.7786C30.3852 72.7786 30.8167 72.8135 31.2842 72.8135C31.7157 70.3686 32.7946 66.0727 35.4558 63.3833C32.2911 65.1995 30.6009 70.2988 29.9536 72.7786Z" fill="#CC6809"/>
<path d="M40.6698 72.8835C40.7417 70.7879 41.1013 67.2603 42.6477 64.2566C40.1663 66.7015 39.4111 70.9974 39.1953 72.8835C39.6988 72.8835 40.1663 72.8835 40.6698 72.8835Z" fill="#CC6809"/>
<path d="M51.3145 72.3947C52.3214 72.3249 53.3643 72.2201 54.3712 72.1153C54.4072 70.4039 54.3712 67.7844 53.8678 65.3745C52.7889 62.5454 51.4583 60.7991 51.4583 60.7991C52.8249 64.8855 51.8539 70.1943 51.3145 72.3947Z" fill="#CC6809"/>
<path d="M26.8965 101.454V102.222H54.4073L54.2275 101.349C45.1292 101.314 35.9948 101.349 26.8965 101.454Z" fill="#D4D4D4"/>
<path d="M107.757 13.4783C107.788 17.4839 106.932 21.6082 104.855 25.1095C104.091 26.4447 103.205 28.2843 101.769 29.0855C100.486 29.7976 99.0194 29.7679 97.5836 29.7976C92.9398 29.8866 88.3266 29.4415 83.6829 29.1151C83.1024 30.4207 82.1859 31.5482 81.0249 32.7647C78.8253 35.0197 76.259 36.8 73.3872 38.2243C72.8678 38.4616 72.379 38.7287 71.8596 38.966C69.1406 40.0342 66.4216 41.1321 63.6414 42.0222C61.8389 42.586 60.067 42.942 58.2034 43.2091C58.0506 43.2387 57.9284 43.2684 57.7756 43.2981C57.9589 43.2091 58.1728 43.1201 58.3561 43.0014C59.3948 42.5563 60.4947 42.0519 61.4418 41.4585C62.8471 40.8057 64.2219 40.0639 65.5356 39.2034C67.5825 37.8385 69.66 36.1769 70.8515 34.0109C71.493 32.8537 72.104 31.5482 72.1346 30.1833C72.1346 29.8272 72.104 29.5009 72.0124 29.1745C67.6436 31.1625 63.2748 33.0614 58.5394 34.1889C56.2175 34.7527 53.6207 34.6043 51.1766 34.0109C46.8689 32.9724 40.2699 18.3147 39.995 15.8816C39.7506 13.6266 40.4227 11.6386 42.4391 10.3628C44.7304 8.90885 47.2967 7.81101 49.8018 6.80218C58.57 3.27127 67.9491 1.63934 77.3894 1.01624C86.1269 0.482155 95.5977 0.541497 103.572 4.54715C105.038 5.25926 106.718 6.11973 107.207 7.78134C107.757 9.5913 107.757 11.5793 107.757 13.4783ZM54.1401 31.6669C53.2541 31.4295 52.4598 31.2811 51.6655 30.7767C50.9933 30.3317 50.2907 29.2041 49.8629 28.5514C48.7631 26.7711 47.6938 24.9611 46.6856 23.0918C45.7997 21.4896 45.0359 19.828 44.2416 18.196C42.989 15.6146 42.0724 13.2409 44.1805 10.8078C44.2416 10.7188 44.1499 10.6001 44.0583 10.6891C42.6835 11.9353 42.0113 13.0925 42.1336 14.9322C42.3169 17.3059 43.875 19.7983 44.8831 21.8753C46.1052 24.3974 47.5105 26.8007 49.0381 29.1745C50.2601 31.1031 51.6655 31.9339 53.9568 32.1119C54.2012 32.1416 54.3845 31.7559 54.1401 31.6669ZM71.0653 26.9194C66.3299 28.581 61.8084 30.48 56.8897 31.6965C57.8368 31.6372 58.7533 31.5779 59.6698 31.4295C63.672 30.5097 67.4603 28.9668 71.0653 26.9194ZM73.0206 27.0975C72.99 27.0381 72.8678 27.0975 72.8984 27.1865C73.8149 29.9163 72.7151 32.8834 71.4014 35.3165C69.9044 38.0462 66.9409 39.6188 64.1913 40.865C64.0997 40.9244 64.1302 41.0727 64.2525 41.0431C69.6294 39.2628 76.1979 33.1504 73.0206 27.0975Z" fill="#47AD5D"/>
<path d="M63.6721 21.0161V16.8324L60.3726 10.8091H63.0916L64.1609 13.2718C64.4969 14.0136 64.7108 14.5477 64.9858 15.2301H65.0163C65.2607 14.607 65.5051 14.0136 65.8106 13.2718L66.8799 10.8091H69.5378L66.0856 16.7434V20.9864H63.6721V21.0161Z" fill="white"/>
<path d="M76.6257 16.7125H72.7763V19.1455H77.084V21.0445H70.3628V10.8079H76.8396V12.7068H72.7458V14.8135H76.5952V16.7125H76.6257Z" fill="white"/>
<path d="M78.7639 18.6411C79.4055 18.9674 80.3831 19.2642 81.3913 19.2642C82.4911 19.2642 83.0716 18.8191 83.0716 18.1663C83.0716 17.5432 82.5828 17.1575 81.2997 16.7421C79.5583 16.1486 78.4279 15.1992 78.4279 13.7453C78.4279 11.9946 79.9249 10.6594 82.3995 10.6594C83.591 10.6594 84.4464 10.8968 85.088 11.1638L84.5686 13.0331C84.1409 12.8254 83.4077 12.5584 82.3689 12.5584C81.3302 12.5584 80.8414 13.0035 80.8414 13.5376C80.8414 14.1903 81.4219 14.487 82.7967 14.9618C84.6603 15.6146 85.5157 16.564 85.5157 18.0179C85.5157 19.7389 84.1714 21.1928 81.2691 21.1928C80.0776 21.1928 78.8861 20.8961 78.3057 20.5697L78.7639 18.6411Z" fill="white"/>
<path d="M86.7686 19.7983C86.7686 18.9972 87.349 18.4334 88.1739 18.4334C88.9988 18.4334 89.5487 18.9972 89.5487 19.7983C89.5487 20.5994 88.9988 21.1632 88.1739 21.1632C87.3185 21.1929 86.7686 20.5994 86.7686 19.7983ZM87.2574 17.662L86.8908 10.8079H89.3654L89.0293 17.662H87.2574Z" fill="white"/>
</svg>
